<?xml version="1.0" encoding="UTF-8"?><svg id="Camada_1" xmlns="http://www.w3.org/2000/svg" viewBox="0 0 500 500"><defs><style>.cls-1{fill:#fff;}</style></defs><path class="cls-1" d="m357.86,245.6c-2.93-7.55-8.13-12.66-16.06-14.75-4.8-1.26-9.67-1.32-14.54-.47-5.94,1.04-11.07,3.65-15.27,8.01-3.83,3.96-6.37,8.68-8,13.91-.43,1.4-.75,2.83-1.14,4.3h57.13c0-.5.03-.95,0-1.39-.27-3.3-.92-6.52-2.12-9.61Z"/><path class="cls-1" d="m200.16,229.8c1.1,0,2.2-.02,3.29-.12,2.85-.25,5.51-1.05,7.66-3.04,2.06-1.91,3.2-4.36,3.89-7.02,1.25-4.85,1.43-9.79.91-14.75-.3-2.81-1.04-5.51-2.58-7.92-2.43-3.82-5.85-5.93-10.49-5.92-16.24.02-32.48,0-48.72,0h-.85v38.76h.93c15.32,0,30.64,0,45.96,0Z"/><path class="cls-1" d="m218.96,265.93c-3.5-6.03-8.78-9.22-15.72-9.26-16.36-.1-32.71-.03-49.07-.03h-.89v46.43h.89c15.17,0,30.34,0,45.5,0,1.5,0,3.01-.03,4.5-.16,2.97-.26,5.83-.98,8.47-2.42,4.83-2.61,7.46-6.82,8.71-12.03.98-4.08,1.05-8.22.63-12.36-.36-3.57-1.2-7.03-3.02-10.17Z"/><path class="cls-1" d="m250,18.28C122.03,18.28,18.28,122.03,18.28,250s103.74,231.72,231.72,231.72,231.72-103.74,231.72-231.72S377.97,18.28,250,18.28Zm45.41,152.1h71.71v21.33h-71.71v-21.33Zm-36.24,112.81c-.1,4.56-.47,9.08-1.49,13.54-2.8,12.25-9.4,21.84-20.19,28.38-10.01,6.07-21.03,8.82-32.63,8.87-30.25.14-60.49.05-90.74.05h-.75v-173.92h94.38c.12.04.24.1.36.11,1.49.14,3,.24,4.48.42,6.42.78,12.56,2.51,18.29,5.54,7.97,4.21,14.05,10.29,17.79,18.52,4.58,10.07,5.66,20.65,3.41,31.41-2.39,11.47-9.45,18.94-20.67,22.41-1.21.37-2.46.61-3.58.89,1.72.21,3.54.35,5.34.66,6.14,1.07,11.38,3.83,15.6,8.46,3.71,4.07,6.09,8.88,7.71,14.09,2.08,6.7,2.83,13.57,2.68,20.57Zm134.76-11.1c-.04.25-.1.51-.11.77-.12,2.32-.24,4.64-.35,7.02h-90.16c0,.7-.02,1.34,0,1.98.16,4.41.93,8.69,2.76,12.73,3.06,6.79,8.3,11.16,15.26,13.59,4.51,1.57,9.15,2.07,13.9,1.9,4.25-.15,8.45-.59,12.52-1.91,4.2-1.37,7.9-3.51,10.62-7.09,2.15-2.83,3.26-6.05,3.39-9.65h30.54c0,.98.04,1.98,0,2.97-.29,5.73-1.4,11.28-3.79,16.54-3.62,7.99-9.49,13.88-17.04,18.19-5.8,3.31-12.04,5.4-18.55,6.76-6.14,1.28-12.36,1.88-18.64,1.84-7.44-.05-14.83-.53-22.1-2.22-8.96-2.08-17.22-5.65-24.42-11.47-7.63-6.16-13-13.96-16.62-23.02-2.82-7.07-4.45-14.41-4.98-22-1.02-14.67,1.86-28.59,8.41-41.72,5.35-10.73,13.15-19.22,23.74-25.03,6.33-3.47,13.12-5.61,20.22-6.8,4.57-.77,9.17-1.12,13.79-1.13,9.4-.02,18.6,1.16,27.39,4.71,11.42,4.62,19.91,12.49,25.67,23.33,3.73,7.02,5.95,14.52,7.22,22.34.75,4.63,1.18,9.29,1.23,13.98,0,.15.07.29.11.44v2.96Z"/></svg>