<?xml version="1.0" encoding="UTF-8"?><svg id="Camada_1" xmlns="http://www.w3.org/2000/svg" viewBox="0 0 500 500"><defs><style>.cls-1{fill:#fff;}</style></defs><g id="R2VV0V.tif"><path class="cls-1" d="m182.09,471.61h-5.44c-17.85-6.18-35.32-13.38-51.14-23.73-57-37.28-93.17-88.86-105.73-156.24-1.76-9.45-2.48-19.09-3.68-28.64,0-9.07,0-18.14,0-27.21.68-5.66,1.25-11.34,2.04-16.99,4.09-29.16,13.13-56.66,27.74-82.29,24.14-42.34,58.19-74.1,101.92-95.49,31.34-15.33,64.64-22.48,99.4-22.66,31.77-.16,62.57,5.45,91.78,18.18,51.78,22.56,90.94,58.88,116.69,109.22,23.14,45.22,29.4,93.24,21.76,143.14-4.39,28.66-14.34,55.46-29.44,80.25-17.35,28.48-39.28,52.74-66.66,71.97-18.92,13.29-39.61,22.95-61.36,30.5h-5.44c-6.54-2.82-8.51-7.93-8.5-14.82.03-23.73,0-47.46-.72-71.17-.34-11.07-4.35-21.25-11.99-29.67-.76-.84-1.44-1.76-2.35-2.88,1.04-.18,1.61-.3,2.19-.37,16.5-2.23,32.78-5.15,47.99-12.48,16.54-7.97,30.83-18.4,39.96-34.84,8.73-15.72,12.9-32.72,14.6-50.5,2.71-28.31-1.77-54.51-21.25-76.66-.87-.99-1.4-3.08-.99-4.27,5.78-16.49,4.97-32.92.12-49.43-3.27-11.14-5.15-12.38-16.51-10.06-.3.06-.58.16-.88.23-16.41,4.22-31.3,11.8-45.42,20.96-2.98,1.94-5.65,2.52-9.26,1.61-35.39-8.96-70.86-8.97-106.26-.06-3.74.94-6.55.46-9.66-1.69-12.14-8.39-25.51-14.42-39.49-18.87-5.47-1.74-11.49-1.86-17.3-2.39-1.04-.1-2.86,1.17-3.25,2.21-6.84,18.28-9.36,36.86-2.81,55.78,1.03,2.97.59,4.87-1.43,7.18-9.22,10.53-15.31,22.69-18.56,36.32-3.53,14.8-3.02,29.72-1.28,44.61,2.08,17.89,7.05,35,17.2,50.08,14.23,21.15,35.52,31.68,59.39,37.73,8.84,2.24,17.94,3.45,27.6,5.26-8.44,8.06-12.29,18.03-14.25,28.92-.16.86-.95,1.99-1.73,2.31-13.34,5.4-27.07,7.94-41.04,3.14-10.73-3.69-18.21-11.64-23.84-21.3-5.48-9.41-12.99-16.64-22.72-21.47-6.47-3.21-13.25-5.19-20.55-3.34-4.12,1.05-4.95,2.8-2.4,6.03,2.3,2.91,5.31,5.26,8.06,7.79,4.2,3.85,9.31,7.04,12.48,11.59,5.04,7.25,9.42,15.13,12.95,23.23,6.12,14.08,16.68,22.43,31.17,25.79,12.73,2.95,25.73,3.51,38.75,1.8,2.49-.33,4.96-.76,8.34-1.28,0,13.68-.18,26.8.07,39.92.14,7.06-2.05,12.32-8.87,15.07Z"/></g></svg>