<?xml version="1.0" encoding="UTF-8"?><svg id="Camada_1" xmlns="http://www.w3.org/2000/svg" viewBox="0 0 500 360.41"><defs><style>.cls-1{fill:#fff;}</style></defs><g id="e3znZZ"><path class="cls-1" d="m165.2,27.64v-4.01C81.8,26.57,14.98,94.83,14.23,178.73c-.77,85.86,67.32,154.95,150.97,158.05v-4.03c-81.13-2.99-146.75-70.15-147.02-151.58-.26-82.92,65.16-150.56,147.02-153.53Z"/><path class="cls-1" d="m165.2,35.68v-4.02C85.77,34.63,22.21,100.04,22.26,180.21c0,80.15,63.63,145.54,142.93,148.52v-4.02c-77.14-3.01-139.53-66.82-138.92-145.69.61-77.42,62.11-140.4,138.92-143.34Z"/><path class="cls-1" d="m165.2,43.74v-4.02C90.55,42.65,30.86,103.89,30.29,179.08c-.57,76.69,60.1,138.61,134.91,141.59v-4.1c-73.53-3.21-130.93-62.79-130.89-137.15.06-72.87,58.35-132.69,130.89-135.68Z"/><path class="cls-1" d="m165.2,51.77v-4.01c-70.27,2.99-126.66,60.97-126.92,131.54-.27,72.34,56.81,130.37,126.92,133.33v-4.02c-68-2.96-123.43-59.33-122.85-129.54.56-68.53,54.86-124.37,122.85-127.3Z"/><path class="cls-1" d="m165.2,59.85v-4.03c-66.39,3.07-118.84,57.44-118.83,124.44,0,66.75,53.15,121.58,118.83,124.39v-4.07c-63.74-2.92-114.81-55.76-114.82-120.47,0-64.66,50.63-117.15,114.82-120.27Z"/><path class="cls-1" d="m165.2,67.84v-4.02c-61.12,2.97-109.74,52.86-110.79,114.26-1.1,64.12,49.17,115.51,110.79,118.47v-4.02c-58.43-2.93-105.84-50.72-106.77-110.53-.96-61.24,46.85-111.18,106.77-114.17Z"/><path class="cls-1" d="m165.2,75.92v-4.05c-57.04,2.94-102.5,49.93-102.72,107.39-.22,58.89,45.06,106.26,102.72,109.2v-4.02c-55.23-2.9-98.77-48.5-98.75-104.79.01-55.36,43.68-100.6,98.75-103.74Z"/><path class="cls-1" d="m165.2,83.91v-4.02c-52.67,3.11-94.56,46.48-94.71,99.71-.15,54.12,41.64,97.92,94.71,100.83v-4.03c-50.86-2.85-90.86-44.92-90.68-96.96.18-50.88,40.22-92.41,90.68-95.53Z"/><path class="cls-1" d="m165.2,92.02v-4.07c-48.26,2.92-86.46,42.82-86.66,91.44-.21,49.81,38.14,90.29,86.66,93.01v-4.04c-46.18-2.78-82.71-41.32-82.69-88.49.02-46.69,36.39-84.68,82.69-87.85Z"/></g><path class="cls-1" d="m189.09,66.75V28.67h5.5l12.48,33.58h.11l12.27-33.58h5.45v38.08h-3.6v-33.95h-.11l-12.48,33.95h-3.38l-12.53-33.95h-.11v33.95h-3.6Z"/><path class="cls-1" d="m232.62,74.15c.42.07.85.14,1.3.21.44.07.89.11,1.35.11.88,0,1.6-.28,2.17-.84.56-.56,1.03-1.24,1.4-2.03.37-.79.68-1.62.93-2.48.25-.86.53-1.59.85-2.19l-10.63-27.56h3.54l8.78,23.53,8.78-23.53h3.44l-10.21,27.02c-.64,1.73-1.24,3.28-1.83,4.65-.58,1.38-1.2,2.55-1.85,3.52-.65.97-1.37,1.71-2.17,2.22-.79.51-1.74.77-2.83.77-.56,0-1.1-.04-1.61-.11-.51-.07-.98-.16-1.4-.26v-3.01Z"/><path class="cls-1" d="m274.45,66.75V28.67h3.6v35.01h20.41v3.07h-24.01Z"/><path class="cls-1" d="m303.69,66.75V28.67h13.91c2.47,0,4.5.28,6.11.85,1.6.56,2.87,1.34,3.81,2.33.93.99,1.59,2.12,1.96,3.41.37,1.29.55,2.64.55,4.05,0,2.12-.43,3.86-1.3,5.24-.86,1.37-1.98,2.46-3.36,3.25-1.38.79-2.94,1.35-4.68,1.67-1.74.32-3.5.48-5.26.48h-8.14v16.82h-3.6Zm11.85-19.88c1.69,0,3.21-.11,4.55-.32,1.34-.21,2.48-.61,3.41-1.19.93-.58,1.66-1.37,2.17-2.38.51-1,.77-2.32.77-3.94,0-2.4-.78-4.21-2.35-5.45-1.57-1.23-4.06-1.85-7.48-1.85h-9.31v15.12h8.25Z"/><path class="cls-1" d="m337.53,58.18c.49,2.36,1.38,4.03,2.67,5,1.29.97,3.13,1.45,5.53,1.45,1.16,0,2.17-.14,3.01-.42.85-.28,1.54-.66,2.09-1.14.55-.48.96-1.01,1.24-1.61.28-.6.42-1.23.42-1.9,0-1.34-.43-2.34-1.3-2.99-.86-.65-1.95-1.16-3.25-1.53-1.3-.37-2.72-.69-4.23-.95-1.52-.26-2.93-.66-4.23-1.19-1.3-.53-2.39-1.29-3.25-2.27-.86-.99-1.3-2.38-1.3-4.18,0-2.29.84-4.17,2.51-5.63,1.67-1.46,4.04-2.19,7.11-2.19s5.37.66,7.22,1.98,2.97,3.54,3.36,6.64h-3.23c-.28-2.12-1.08-3.6-2.41-4.47-1.32-.86-2.99-1.3-5-1.3s-3.54.43-4.6,1.3c-1.06.86-1.59,2-1.59,3.41,0,1.23.43,2.18,1.3,2.83.86.65,1.95,1.18,3.25,1.59,1.3.41,2.71.77,4.23,1.08,1.52.32,2.93.77,4.23,1.35,1.3.58,2.39,1.37,3.25,2.35.86.99,1.3,2.36,1.3,4.12,0,1.31-.28,2.46-.85,3.46-.56,1-1.34,1.84-2.33,2.51-.99.67-2.16,1.17-3.52,1.51s-2.85.5-4.47.5-3.06-.24-4.31-.71c-1.25-.48-2.32-1.14-3.2-1.98-.88-.85-1.57-1.83-2.06-2.96-.49-1.13-.78-2.34-.85-3.65h3.23Z"/><path class="cls-1" d="m233.25,170.86v-35.59h-31.15v35.59h-16.5v-79.72h16.5v30.4h31.15v-30.4h16.55v79.72h-16.55Z"/><path class="cls-1" d="m312.37,154.47h-29.37l-5.52,16.39h-17.42l28.45-79.72h18.82l28.23,79.72h-18.06l-5.14-16.39Zm-4.65-13.74l-9.95-31.37-10.28,31.37h20.23Z"/><path class="cls-1" d="m345.69,91.13h16.66v65.39h39.48v14.33h-56.14v-79.72Z"/><path class="cls-1" d="m413.35,91.13h16.66v65.39h39.48v14.33h-56.14v-79.72Z"/><path class="cls-1" d="m205.71,231.46c-5.45,0-9.61-1.48-12.49-4.45-3.86-3.64-5.79-8.88-5.79-15.73s1.93-12.23,5.79-15.73c2.88-2.97,7.04-4.45,12.49-4.45s9.61,1.48,12.49,4.45c3.85,3.5,5.77,8.74,5.77,15.73s-1.92,12.09-5.77,15.73c-2.88,2.97-7.04,4.45-12.49,4.45Zm7.53-10.24c1.85-2.33,2.77-5.64,2.77-9.93s-.93-7.58-2.78-9.92c-1.85-2.34-4.36-3.5-7.51-3.5s-5.67,1.16-7.55,3.49-2.82,5.64-2.82,9.93.94,7.61,2.82,9.93,4.4,3.49,7.55,3.49,5.66-1.16,7.53-3.49Z"/><path class="cls-1" d="m257.09,199.02h-19.12v8.77h16.74v6.62h-16.74v15.99h-7.92v-38.08h27.03v6.7Z"/><path class="cls-1" d="m245.46,268.23h-40.32v18.5h35.3v13.97h-35.3v33.72h-16.69v-80.31h57.01v14.13Z"/><path class="cls-1" d="m297.67,317.88h-29.62l-5.56,16.53h-17.57l28.7-80.42h18.99l28.48,80.42h-18.22l-5.18-16.53Zm-4.69-13.86l-10.04-31.64-10.37,31.64h20.41Z"/><path class="cls-1" d="m346.66,334.41h-15.66v-80.42h24.44l14.62,63.23,14.51-63.23h24.17v80.42h-15.66v-54.39c0-1.56.02-3.75.05-6.57.04-2.82.05-4.99.05-6.52l-15.22,67.49h-16.31l-15.11-67.49c0,1.53.02,3.7.06,6.52.03,2.82.05,5.01.05,6.57v54.39Z"/><path class="cls-1" d="m480.32,299.27h-39.06v20.68h44.52v14.46h-60.94v-80.42h58.98v14.24h-42.55v17.08h39.06v13.97Z"/><path class="cls-1" d="m134.79,191.48c0-14.96.04-29.44-.04-43.92-.01-2.08.77-3.03,2.73-3.54,7.38-1.89,14.73-3.9,22.1-5.84,1.2-.31,2.43-.48,3.9-.76.09,1.42.21,2.52.21,3.62,0,5.07-.1,10.13-.02,15.2.03,1.79-.82,2.5-2.37,2.91-6.01,1.56-12,3.2-18.01,4.73-1.61.41-2.24,1.11-2.21,2.9.15,11.61.18,23.22.2,34.83,0,3.37-.08,6.7-1.74,9.85-3.23,6.13-11.62,10.56-19.57,7.22-7.35-3.08-11.23-11.04-9-18.78,2.29-7.91,11.33-12.63,19.26-10.04,1.51.5,3.01,1.05,4.57,1.6Z"/></svg>