<?xml version="1.0" encoding="UTF-8"?><svg id="Camada_1" xmlns="http://www.w3.org/2000/svg" viewBox="0 0 500 338.71"><path d="m399.46,167.51c-1.95-78.86-65.12-144.3-147.14-145.55-84.86-1.29-154.15,67.03-151.77,154.3,2.14,78.72,66.44,144.87,150.03,144.5,82.2.2,151-67.21,148.88-153.25Zm-81,70.02c-2.55,4.27-7.97,5.7-12.6,3.01-7.74-4.5-15.75-8.41-24.15-11.51-8.71-3.22-17.66-5.58-26.84-6.84-7.17-.98-14.41-1.54-21.63-2.05-12.82-.91-25.54.39-38.18,2.32-7.02,1.07-13.99,2.54-20.96,3.93-4.41.88-9.2-2.12-10.63-6.81-1.32-4.36,1.15-9.49,5.7-10.92,4.11-1.29,8.36-2.17,12.6-3.01,14.01-2.77,28.17-4.21,45.08-4.5,11.16-.41,24.77,1.09,38.25,3.84,14.04,2.86,27.43,7.63,40.2,14.1,3.38,1.72,6.65,3.67,9.87,5.68,4.86,3.03,6.09,8.05,3.28,12.75Zm3.41-36.37c-4.37-2.42-8.69-4.95-13.18-7.12-14.97-7.23-30.74-11.95-47.09-14.85-10.78-1.91-21.62-2.89-32.56-3.21-11.83-.35-23.57.33-35.19,2.42-7.58,1.36-15.07,3.23-22.58,4.97-5.43,1.26-11.28-1.66-13.42-6.86-2.12-5.15-.28-11.69,4.75-14.01,4.6-2.13,9.6-3.69,14.58-4.65,9.92-1.9,19.92-3.46,29.94-4.69,5.93-.73,11.98-.56,17.97-.8.02-.14.04-.29.06-.43,9.88.85,19.78,1.56,29.64,2.58,14.02,1.45,27.66,4.81,41,9.26,12.29,4.1,24.11,9.31,35.24,16,4.27,2.56,7.36,5.75,7.48,11.21.15,7.11-8.86,14.5-16.63,10.18Zm29.94-46.33c-4.4,2.14-8.73,2.17-12.99-.29-9.03-5.22-18.5-9.47-28.36-12.86-13.89-4.77-28.18-7.92-42.7-9.98-7.37-1.05-14.83-1.57-22.26-2.1-6.24-.44-12.52-.97-18.75-.72-10.7.43-21.39,1.25-32.05,2.25-10.09.94-19.95,3.15-29.7,5.95-8.93,2.56-17.26-3.28-18.29-12.54-.56-5.04,3.63-11.85,9.08-13.6,6.51-2.08,13.15-3.97,19.88-5.15,9.43-1.64,18.96-2.79,28.49-3.69,7.82-.74,15.7-.82,23.25-1.18,9.79.4,19.28.46,28.7,1.27,8.6.74,17.17,2.12,25.7,3.52,15.15,2.5,29.89,6.58,44.24,12.04,8.92,3.39,17.58,7.36,25.77,12.3,4.03,2.43,6.65,5.78,7.51,10.53,1.14,6.28-3.44,12.26-7.51,14.24Z"/></svg>