<?xml version="1.0" encoding="UTF-8"?><svg id="Camada_1" xmlns="http://www.w3.org/2000/svg" viewBox="0 0 500 338.71"><g id="kL33xk"><path d="m250.34,19.86c38.87.49,77.74.89,116.61,1.53,11.14.19,22.29.77,33.38,1.79,10.43.96,20.52,3.72,29.77,8.83,10.98,6.07,19.18,14.73,24.49,26.22,4.52,9.78,6.31,20.15,7.24,30.71,1.26,14.26,2.72,28.52,3.15,42.82.6,19.96.45,39.95.35,59.93-.04,9.7-.56,19.41-1.07,29.1-.82,15.49-1.65,31.03-5.11,46.18-5.12,22.43-18.77,37.44-40.83,44.52-9.84,3.15-20,4.43-30.3,4.84-63.54,2.52-127.11,1.93-190.68,1.82-25.72-.05-51.44-.84-77.16-1.46-10.82-.26-21.64-.85-32.18-3.67-14.47-3.87-27-10.77-35.92-23.22-6.15-8.58-9.52-18.26-11.21-28.6-3.2-19.68-4.34-39.54-4.76-59.43-.4-19.1-.81-38.22-.35-57.3.41-17.16,1.91-34.31,3.09-51.45.69-10.01,2.19-19.92,5.56-29.42,5.42-15.32,15.54-26.39,30.31-33.28,11.83-5.51,24.38-7.7,37.27-8.09,24.44-.73,48.89-1.45,73.34-1.79,21.66-.3,43.34-.06,65.01-.06,0-.16,0-.33,0-.49Zm-38.46,149.31h-.05c0,19.98,0,39.96,0,59.93,0,6.67,6.21,10.28,12.02,7,9-5.09,18.02-10.15,26.98-15.3,21.04-12.09,42.05-24.2,63.06-36.34,4.48-2.59,8.92-5.24,13.31-7.96,2.48-1.53,4.59-3.39,4.81-6.66.25-3.74-1.93-5.9-4.79-7.6-8.48-5.04-16.94-10.11-25.48-15.04-25.84-14.9-51.73-29.73-77.58-44.62-2.75-1.58-5.58-2.09-8.38-.52-2.81,1.57-3.92,4.21-3.91,7.41.02,19.9.01,39.8.01,59.7Z"/></g></svg>